<svg id="Layer_1" data-name="Layer 1" xmlns="http://www.w3.org/2000/svg" viewBox="0 0 338.63 511.94"><defs><style>.cls-1{fill:#a4b1b1;}</style></defs><title>dropblue</title><path class="cls-1" d="M362.31,366c-1.21,82.34-62.18,152.2-143.65,164.47a169.34,169.34,0,0,1-190-125.64c-10-38.9-4.27-76,11.15-112.29,15.57-36.69,36.4-70.41,57.86-103.79,25.82-40.16,52.54-79.76,74.44-122.3a499.57,499.57,0,0,0,20.79-46c23.85,60.48,59.28,112.41,93.26,165.17,22.09,34.3,43.87,68.8,59.66,106.64C355.67,315.84,362.69,340.08,362.31,366Z" transform="translate(-23.7 -20.45)"/></svg>