<svg id="Layer_1" data-name="Layer 1" xmlns="http://www.w3.org/2000/svg" viewBox="0 0 764 357.64"><defs><style>.cls-1{fill:#8a8170;}.cls-2{fill:#e8595f;}</style></defs><title>map7</title><path class="cls-1" d="M562.84,92.19c-5.05-.11-7.33-2.64-7.51-6.53a5.89,5.89,0,0,1,5.86-6.5c3.92-.24,6.8,1.79,7.1,6S565.8,91.3,562.84,92.19Z" transform="translate(-35.32 -21.46)"/><path class="cls-1" d="M491.39,86c-.65,3.74-2.8,6.26-6.95,6.07s-6.28-3.1-6.09-7a5.91,5.91,0,0,1,6.44-5.94C488.67,79.26,491.23,81.51,491.39,86Z" transform="translate(-35.32 -21.46)"/><path class="cls-1" d="M196.57,92.24c-4.4-.34-7-2.34-7.2-6.47-.19-4.3,2.62-6.5,6.5-6.64a5.92,5.92,0,0,1,6.43,5.94C202.52,89.06,200.21,91.49,196.57,92.24Z" transform="translate(-35.32 -21.46)"/><path class="cls-1" d="M118.82,79c4.27.77,6.82,3,6.46,7.12-.32,3.53-2.46,6.12-6.36,6-4.1-.1-6.51-2.51-6.56-6.6C112.31,81.17,115.39,79.64,118.82,79Z" transform="translate(-35.32 -21.46)"/><path class="cls-1" d="M125.47,104.88c-.75,4-3,6.59-7.1,6.22-3.53-.31-6.11-2.46-6-6.36.1-4.11,2.5-6.53,6.6-6.56C123.25,98.15,124.9,101.13,125.47,104.88Z" transform="translate(-35.32 -21.46)"/><path class="cls-1" d="M194.94,98.07c5,.18,7.28,2.77,7.39,6.65a5.91,5.91,0,0,1-6,6.39c-3.9.16-6.78-1.88-7-6.13S191.91,98.86,194.94,98.07Z" transform="translate(-35.32 -21.46)"/><path class="cls-1" d="M414.47,104.32c-.56,4.74-3.15,6.92-7.08,6.81a5.92,5.92,0,0,1-6.08-6.32c.06-3.86,2.21-6.71,6.52-6.64S413.88,101,414.47,104.32Z" transform="translate(-35.32 -21.46)"/><path class="cls-1" d="M491.45,104.12c-.42,4.84-3,7-6.92,7a5.93,5.93,0,0,1-6.21-6.2c0-3.88,2.1-6.74,6.38-6.77S490.79,100.88,491.45,104.12Z" transform="translate(-35.32 -21.46)"/><path class="cls-1" d="M568.41,104.52c-.32,4.4-2.93,6.61-6.81,6.63a5.94,5.94,0,0,1-6.27-6.14c-.06-3.9,2-6.8,6.31-6.83S567.9,100.67,568.41,104.52Z" transform="translate(-35.32 -21.46)"/><path class="cls-1" d="M664.86,104.27c-.6,4.46-2.88,7-6.93,6.86-3.55-.13-6.27-2.34-6.34-6.14-.07-4,2.29-6.6,6.41-6.81C662.37,98,664,101,664.86,104.27Z" transform="translate(-35.32 -21.46)"/><path class="cls-1" d="M664.82,219.55c-.74,3.91-2.81,6.8-6.92,6.52-3.89-.27-6.52-2.89-6.3-7,.21-3.73,2.74-5.94,6.44-6C662.24,213,664.27,215.59,664.82,219.55Z" transform="translate(-35.32 -21.46)"/><path class="cls-1" d="M183.23,258.11c-.7,3.86-2.76,6.38-7,6.11-3.76-.23-6.15-2.52-6.2-6.21a6.28,6.28,0,0,1,6.58-6.74C180.59,251.22,182.81,254,183.23,258.11Z" transform="translate(-35.32 -21.46)"/><path class="cls-1" d="M254.46,264.37c-4.68-.31-7.42-2.38-7.43-6.48s2.73-6.6,6.68-6.62c3.64,0,6.11,2.42,6.37,6.12C260.37,261.56,257.79,263.67,254.46,264.37Z" transform="translate(-35.32 -21.46)"/><path class="cls-1" d="M664.85,200.38c-.79,4.11-2.86,6.68-7.09,6.4-3.72-.25-6.14-2.52-6.17-6.26a6.31,6.31,0,0,1,6.58-6.74C662.24,193.7,664.23,196.66,664.85,200.38Z" transform="translate(-35.32 -21.46)"/><path class="cls-1" d="M581.42,206.91c-4.2-.24-6.77-2.34-6.86-6.47a6.12,6.12,0,0,1,5.86-6.62c4-.36,6.8,2.15,7.18,6.08C588,204,585.28,206.2,581.42,206.91Z" transform="translate(-35.32 -21.46)"/><path class="cls-2" d="M491.4,200.08c-.24,4.16-2.45,6.53-6.53,6.72-3.87.17-6.21-2.22-6.51-5.83-.34-4,2-6.92,6-7.16S490.77,196,491.4,200.08Z" transform="translate(-35.32 -21.46)"/><path class="cls-1" d="M426.71,206.91c-4-.62-6.42-2.86-6.13-7,.26-3.7,2.73-6.16,6.37-6.11,3.95.05,6.7,2.63,6.67,6.66S430.82,206.59,426.71,206.91Z" transform="translate(-35.32 -21.46)"/><path class="cls-1" d="M407.78,193.61c3.75.76,6.58,2.62,6.51,6.85s-2.76,6.36-6.8,6.33c-3.85,0-6.06-2.57-6.16-6.19C401.21,196.57,403.73,194.26,407.78,193.61Z" transform="translate(-35.32 -21.46)"/><path class="cls-1" d="M658.09,155.49c4.2.39,6.55,2.84,6.58,6.81a6,6,0,0,1-6.13,6.31c-3.95.14-6.86-2.16-6.95-6.28S654.12,156,658.09,155.49Z" transform="translate(-35.32 -21.46)"/><path class="cls-1" d="M645.42,162.39c-.52,4.19-3,6.49-7,6.21-3.62-.24-6.19-2.71-6.09-6.39.11-3.88,2.49-6.64,6.67-6.58S645.12,158.41,645.42,162.39Z" transform="translate(-35.32 -21.46)"/><path class="cls-1" d="M562.32,168.78c-4.3-.34-7-2.53-7-6.56,0-3.5,2-6.32,5.83-6.58,4.1-.27,6.7,2,7.13,6C568.74,166,565.77,167.78,562.32,168.78Z" transform="translate(-35.32 -21.46)"/><path class="cls-1" d="M491.41,162.44c-.6,4.16-3.16,6.36-7.12,6.17a5.94,5.94,0,0,1-6-6.44c.13-3.85,2.33-6.74,6.62-6.54C489,155.81,491.11,158.4,491.41,162.44Z" transform="translate(-35.32 -21.46)"/><path class="cls-1" d="M414.4,162.48c-.62,4.14-3.18,6.34-7.14,6.12a5.93,5.93,0,0,1-5.94-6.45c.14-3.86,2.35-6.74,6.65-6.52C412.06,155.84,414.12,158.43,414.4,162.48Z" transform="translate(-35.32 -21.46)"/><path class="cls-1" d="M195,155.49c4.95.21,7.23,2.78,7.36,6.66a5.94,5.94,0,0,1-6,6.45c-3.92.19-6.77-1.88-7-6.11S191.93,156.38,195,155.49Z" transform="translate(-35.32 -21.46)"/><path class="cls-1" d="M119.12,155.49c4.15.62,6.36,3.17,6.18,7.13a5.94,5.94,0,0,1-6.4,6c-3.87-.11-6.69-2.33-6.54-6.62S115.15,155.88,119.12,155.49Z" transform="translate(-35.32 -21.46)"/><path class="cls-1" d="M638.78,21.46c4,.6,6.65,2.5,6.54,6.78-.1,3.74-2.21,6.17-6,6.39-4.2.26-6.7-2.37-7-6.25C632.08,24.25,635,22.24,638.78,21.46Z" transform="translate(-35.32 -21.46)"/><path class="cls-1" d="M587.87,104.43c-.75,4.38-3.14,6.83-7.14,6.7-3.63-.12-6.18-2.45-6.16-6.24,0-4,2.2-6.69,6.44-6.72S587,101.06,587.87,104.43Z" transform="translate(-35.32 -21.46)"/><path class="cls-1" d="M510.83,104.15c-.5,4.5-2.92,6.95-6.85,7a5.94,5.94,0,0,1-6.4-6c-.15-4,1.95-6.74,6.17-7S509.82,100.86,510.83,104.15Z" transform="translate(-35.32 -21.46)"/><path class="cls-1" d="M427.14,111.32c-4-.67-6.77-2.63-6.57-6.86.16-3.62,2.24-6.16,6.11-6.28,4.18-.13,6.71,2.37,6.93,6.31C433.86,108.69,430.82,110.54,427.14,111.32Z" transform="translate(-35.32 -21.46)"/><path class="cls-1" d="M587.79,28.4c-.9,3.74-2.94,6.49-7.12,6.24s-6.31-3.05-6.08-7.08a5.94,5.94,0,0,1,6.48-5.93C585,21.75,587.4,24.21,587.79,28.4Z" transform="translate(-35.32 -21.46)"/><path class="cls-1" d="M176.71,111.33c-4-.78-6.94-2.7-6.67-6.89.25-4,2.79-6.42,7-6.26,3.86.16,5.93,2.72,6.07,6.33C183.25,108.73,180.41,110.63,176.71,111.33Z" transform="translate(-35.32 -21.46)"/><path class="cls-1" d="M722.45,314.5c-.33,4.35-2.15,7.07-6.4,7.15s-6.56-2.61-6.69-6.5c-.13-3.69,2.36-6.08,6-6.36C719.5,308.47,721.78,310.83,722.45,314.5Z" transform="translate(-35.32 -21.46)"/><path class="cls-1" d="M176.55,92.25c-4.24-.75-6.78-3.09-6.49-7.12s3.2-6.3,7.2-5.95c3.62.31,6,2.74,5.82,6.53C182.87,89.71,180.44,92,176.55,92.25Z" transform="translate(-35.32 -21.46)"/><path class="cls-1" d="M664.8,85.85c-.82,3.74-2.7,6.56-7,6.22-4.08-.32-6.4-3-6.19-7,.19-3.8,3-5.95,6.52-6C662.14,79.1,664.43,81.67,664.8,85.85Z" transform="translate(-35.32 -21.46)"/><path class="cls-1" d="M260.22,85.88c-.77,3.73-2.68,6.52-7,6.19-4.09-.31-6.42-3-6.21-7,.2-3.75,3-6,6.53-6C257.57,79.13,259.91,81.63,260.22,85.88Z" transform="translate(-35.32 -21.46)"/><path class="cls-1" d="M426.88,79c3.88.6,6.86,2.51,6.74,6.66-.12,3.93-2.62,6.5-6.79,6.47-3.87,0-6-2.54-6.25-6.15C420.28,81.73,423,79.7,426.88,79Z" transform="translate(-35.32 -21.46)"/><path class="cls-1" d="M580.66,92.21c-4-.59-6.24-3-6.08-7.06a5.93,5.93,0,0,1,6.37-6c3.91,0,6.82,2.42,6.68,6.57C587.49,89.65,584.89,91.93,580.66,92.21Z" transform="translate(-35.32 -21.46)"/><path class="cls-1" d="M510.81,85.49c-.67,3.82-2.61,6.59-6.79,6.61s-6.43-2.73-6.46-6.71c0-3.79,2.51-6.13,6.15-6.26C507.71,79,510.1,81.44,510.81,85.49Z" transform="translate(-35.32 -21.46)"/><path class="cls-1" d="M279.49,27.86c-.62,3.84-2.31,6.85-6.58,6.79-4.07-.06-6.48-2.54-6.55-6.64-.07-3.89,2.52-6,6.06-6.34C276.57,21.32,278.71,24,279.49,27.86Z" transform="translate(-35.32 -21.46)"/><path class="cls-1" d="M735.18,251.1c3.94.67,6.57,2.86,6.48,6.94-.08,3.66-2.31,6.1-6.16,6.19-4.11.09-6.79-2.15-6.9-6.25S731.34,251.84,735.18,251.1Z" transform="translate(-35.32 -21.46)"/><path class="cls-1" d="M677.17,264.32c-3.79-.48-6.38-2.49-6.22-6.72s2.93-6.42,6.85-6.32c3.71.09,6,2.75,6.06,6.38C683.91,261.66,681.61,264.09,677.17,264.32Z" transform="translate(-35.32 -21.46)"/><path class="cls-2" d="M484.32,212.86c4.19.54,7,2.35,7,6.61s-2.74,6.58-6.65,6.63c-3.69.05-6.07-2.57-6.3-6.2C478.08,215.8,480.6,213.57,484.32,212.86Z" transform="translate(-35.32 -21.46)"/><path class="cls-1" d="M664.8,28.4c-.85,3.74-2.76,6.6-7,6.23-4-.35-6.4-3-6.16-7.06.23-3.79,3-5.95,6.55-5.95C662.18,21.63,664.44,24.24,664.8,28.4Z" transform="translate(-35.32 -21.46)"/><path class="cls-1" d="M195.81,270.35c4.17.48,6.64,2.83,6.5,6.86-.12,3.58-2.41,6.28-6.15,6.34-4,.07-6.64-2.3-6.8-6.44S192,271,195.81,270.35Z" transform="translate(-35.32 -21.46)"/><path class="cls-1" d="M433.79,258.07c-.75,3.86-2.92,6.3-7.09,6.16-3.84-.12-6.06-2.49-6.13-6.2-.08-4.11,2.48-6.77,6.46-6.76S433.27,254,433.79,258.07Z" transform="translate(-35.32 -21.46)"/><path class="cls-1" d="M260.25,277.05c-.7,3.9-2.77,6.76-6.9,6.49-3.93-.25-6.52-2.93-6.31-7,.19-3.7,2.77-6,6.45-6C257.64,270.41,259.75,273,260.25,277.05Z" transform="translate(-35.32 -21.46)"/><path class="cls-1" d="M407.65,212.9c3.86.5,6.67,2.32,6.64,6.58s-2.75,6.57-6.65,6.62c-3.7.05-6.09-2.57-6.3-6.2C401.11,215.85,403.49,213.47,407.65,212.9Z" transform="translate(-35.32 -21.46)"/><path class="cls-1" d="M279.46,276.6c-.4,3.9-2.29,6.87-6.39,6.95-3.95.08-6.57-2.39-6.72-6.53-.13-3.87,2.29-6.1,5.89-6.5C276.46,270.06,278.59,272.68,279.46,276.6Z" transform="translate(-35.32 -21.46)"/><path class="cls-1" d="M202.46,219.2c-.44,4-2.44,6.9-6.51,6.89-3.91,0-6.55-2.49-6.59-6.67,0-3.86,2.37-6,6-6.36C199.62,212.68,201.67,215.33,202.46,219.2Z" transform="translate(-35.32 -21.46)"/><path class="cls-1" d="M433.78,276.54c-.4,4-2.53,6.79-6.5,7s-6.57-2.51-6.73-6.51c-.14-3.74,2.16-6.22,5.88-6.52C430.54,270.18,432.85,272.64,433.78,276.54Z" transform="translate(-35.32 -21.46)"/><path class="cls-1" d="M491.41,277.11c-.56,4-2.91,6.58-6.9,6.44s-6.38-3.07-6.16-7.05c.2-3.63,2.59-6.11,6.38-6C488.75,270.58,491.11,272.92,491.41,277.11Z" transform="translate(-35.32 -21.46)"/><path class="cls-1" d="M664.79,315.5c-.85,3.75-2.75,6.51-7,6.14-4.12-.35-6.37-3-6.12-7,.23-3.79,3-5.9,6.57-5.87C662.22,308.77,664.47,311.33,664.79,315.5Z" transform="translate(-35.32 -21.46)"/><path class="cls-1" d="M273.38,264.38c-4.31-.39-7-2.29-7-6.52s2.76-6.54,6.63-6.6c3.67-.06,6.09,2.52,6.31,6.16C279.55,261.49,277.14,263.79,273.38,264.38Z" transform="translate(-35.32 -21.46)"/><path class="cls-1" d="M491.4,257.52c-.24,4.11-2.36,6.52-6.48,6.72-3.89.19-6.24-2.14-6.56-5.75-.36-4,1.91-6.92,5.95-7.19S490.73,253.47,491.4,257.52Z" transform="translate(-35.32 -21.46)"/><path class="cls-1" d="M683.94,315.51c-.78,3.83-2.72,6.54-7,6.12-4.1-.4-6.2-3-5.95-7.11.25-3.93,3-5.79,6.54-5.77C681.58,308.77,683.72,311.39,683.94,315.51Z" transform="translate(-35.32 -21.46)"/><path class="cls-1" d="M503.9,308.61c3.93.56,6.87,2.49,6.72,6.65-.14,3.94-2.63,6.47-6.82,6.4-3.88-.06-6-2.54-6.22-6.15C497.31,311.29,500,309.26,503.9,308.61Z" transform="translate(-35.32 -21.46)"/><path class="cls-1" d="M253.56,308.59c4,.63,6.74,2.65,6.52,6.85-.19,3.61-2.29,6.12-6.16,6.22-4.2.11-6.68-2.38-6.88-6.33C246.83,311.14,249.81,309.26,253.56,308.59Z" transform="translate(-35.32 -21.46)"/><path class="cls-1" d="M741.82,315.13c-.64,3.79-2.42,6.64-6.71,6.54s-6.52-2.69-6.52-6.7c0-3.78,2.65-6,6.24-6.21C738.93,308.54,741.19,311.05,741.82,315.13Z" transform="translate(-35.32 -21.46)"/><path class="cls-1" d="M722.41,85.89c-.51,3.77-2.54,6.39-6.75,6.19s-6.41-3-6.29-6.91c.11-3.72,2.81-6,6.41-6C719.78,79.08,722.21,81.43,722.41,85.89Z" transform="translate(-35.32 -21.46)"/><path class="cls-1" d="M684,85.39c-.49,3.76-2.16,6.71-6.44,6.7-4.1,0-6.46-2.44-6.59-6.55-.13-4,2.43-6.06,6-6.38C681,78.79,683.3,81.27,684,85.39Z" transform="translate(-35.32 -21.46)"/><path class="cls-1" d="M722.42,334.2c-.3,4.28-2.74,6.69-6.67,6.55s-6.59-2.65-6.38-6.74a6.12,6.12,0,0,1,6.34-6.06C719.73,327.85,722,330.21,722.42,334.2Z" transform="translate(-35.32 -21.46)"/><path class="cls-1" d="M234.77,283.78c-4.4-.73-7.05-3-6.93-7s2.81-6.47,6.9-6.27c3.69.17,5.94,2.45,6,6.31C240.83,281.09,238.13,282.93,234.77,283.78Z" transform="translate(-35.32 -21.46)"/><path class="cls-1" d="M645.4,86c-.55,3.74-2.6,6.34-6.82,6.1s-6.37-3-6.21-7c.16-3.72,2.88-6,6.48-6C642.85,79.12,645.25,81.5,645.4,86Z" transform="translate(-35.32 -21.46)"/><path class="cls-1" d="M607,85.7c-.7,3.76-2.49,6.64-6.8,6.38-4.1-.24-6.32-2.79-6.23-6.9.09-3.94,2.79-5.92,6.31-6C604.35,79,606.53,81.6,607,85.7Z" transform="translate(-35.32 -21.46)"/><path class="cls-1" d="M240.8,373c-.46,3.79-2.53,6.3-6.74,6.1s-6.35-2.94-6.21-6.89c.13-3.74,2.73-5.92,6.4-5.94C238.3,366.25,240.67,368.5,240.8,373Z" transform="translate(-35.32 -21.46)"/><path class="cls-1" d="M446,270.35c4.13.44,6.86,2.61,6.8,6.64a6.26,6.26,0,0,1-6.73,6.56c-3.67-.06-6-2.41-6.17-6.21C439.69,273.09,442.14,271,446,270.35Z" transform="translate(-35.32 -21.46)"/><path class="cls-1" d="M684,200.56c-.77,4-2.83,6.6-7.08,6.21-3.67-.34-6-2.51-6-6.37,0-4.22,2.71-6.6,6.59-6.61C681.61,193.78,683.57,196.71,684,200.56Z" transform="translate(-35.32 -21.46)"/><path class="cls-1" d="M600.08,193.6c4.34.56,6.8,2.91,6.76,6.91,0,3.61-2.18,6.19-6,6.27-4,.09-6.68-2-6.85-6.22S596.67,194.51,600.08,193.6Z" transform="translate(-35.32 -21.46)"/><path class="cls-1" d="M183.29,219c-.59,4.41-2.72,7.24-6.77,7.11a6.32,6.32,0,0,1-6.49-6.85c.08-3.7,2.57-6,6.28-6.19C180.57,212.8,182.47,215.56,183.29,219Z" transform="translate(-35.32 -21.46)"/><path class="cls-1" d="M523.11,206.91c-4-.5-6.32-2.62-6.19-6.84.12-3.83,2.47-6.16,6.09-6.28a6.23,6.23,0,0,1,6.81,6.45C529.92,204.27,527.3,206.51,523.11,206.91Z" transform="translate(-35.32 -21.46)"/><path class="cls-1" d="M453,200.57c-.73,3.91-2.89,6.42-7,6.21-3.76-.18-6-2.45-6-6.28,0-4.19,2.4-6.73,6.4-6.7S452.49,196.55,453,200.57Z" transform="translate(-35.32 -21.46)"/><path class="cls-1" d="M240.85,219c-.35,4.59-2.6,7.22-6.64,7.09a6.25,6.25,0,0,1-6.37-6.89c.12-3.68,2.55-6,6.28-6.16C238.29,212.9,240.39,215.42,240.85,219Z" transform="translate(-35.32 -21.46)"/><path class="cls-1" d="M349.92,193.61c4,.67,6.5,3,6.41,7-.08,3.56-2.24,6.11-6.06,6.22-4.12.12-6.61-2.25-6.71-6.29S346.1,194.31,349.92,193.61Z" transform="translate(-35.32 -21.46)"/><path class="cls-1" d="M157.62,193.63c3.85.8,6.32,2.91,6.1,7.12-.2,3.82-2.47,6-6.23,6-4.16,0-6.69-2.51-6.67-6.49S153.58,194.12,157.62,193.63Z" transform="translate(-35.32 -21.46)"/><path class="cls-1" d="M684,162.22c-.6,4.09-2.84,6.66-6.94,6.38-3.51-.24-6.13-2.33-6.11-6.26,0-4.13,2.37-6.61,6.46-6.71C681.67,155.52,683.4,158.46,684,162.22Z" transform="translate(-35.32 -21.46)"/><path class="cls-1" d="M433.78,219.08c-.4,4-2.59,6.8-6.53,7s-6.57-2.51-6.69-6.54c-.12-3.74,2.15-6.19,5.9-6.47C430.6,212.74,432.86,215.2,433.78,219.08Z" transform="translate(-35.32 -21.46)"/><path class="cls-1" d="M445.91,212.92c4.17.31,6.87,2.47,6.9,6.5a6.24,6.24,0,0,1-6.61,6.66c-3.64,0-6-2.28-6.27-6.09C439.65,215.76,442,213.6,445.91,212.92Z" transform="translate(-35.32 -21.46)"/><path class="cls-1" d="M600.62,168.8c-3.82-.66-6.78-2.31-6.68-6.65.09-4.13,2.55-6.49,6.63-6.54,3.86,0,6,2.57,6.25,6.14C607.13,165.91,604.5,168,600.62,168.8Z" transform="translate(-35.32 -21.46)"/><path class="cls-1" d="M587.8,162c-.54,4.12-2.94,6.6-6.89,6.6a6,6,0,0,1-6.33-6.09c-.13-4,2.07-6.77,6.25-6.91S587,158.24,587.8,162Z" transform="translate(-35.32 -21.46)"/><path class="cls-1" d="M504,155.49c4,.52,6.66,2.82,6.59,6.81s-3,6.45-6.94,6.31a6,6,0,0,1-6.13-6.28C497.56,158.29,499.91,155.93,504,155.49Z" transform="translate(-35.32 -21.46)"/><path class="cls-2" d="M503.58,212.92c4.11.29,6.93,2.3,7,6.38s-2.63,6.66-6.56,6.8c-3.66.14-6.12-2.35-6.46-6C497.21,215.91,499.66,213.67,503.58,212.92Z" transform="translate(-35.32 -21.46)"/><path class="cls-1" d="M433.79,162.43c-.86,4-3.27,6.45-7.28,6.17-3.63-.25-6.08-2.67-6-6.46.14-4,2.46-6.66,6.67-6.51S433.27,158.56,433.79,162.43Z" transform="translate(-35.32 -21.46)"/><path class="cls-1" d="M607,219.14c-.37,4-2.36,6.94-6.43,6.94-3.91,0-6.54-2.42-6.59-6.62-.05-3.87,2.31-6.06,5.95-6.4C604.12,212.67,606.22,215.26,607,219.14Z" transform="translate(-35.32 -21.46)"/><path class="cls-1" d="M279.48,315.08c-.63,3.71-2.27,6.68-6.61,6.58-4.11-.09-6.46-2.53-6.51-6.63-.05-3.9,2.54-6,6.1-6.25C276.59,308.48,278.8,311,279.48,315.08Z" transform="translate(-35.32 -21.46)"/><path class="cls-1" d="M645.39,142.63c-.06,3.83-2,6.31-5.75,6.7-4.15.42-6.94-2-7.25-6-.32-4.17,2.5-6.63,6.52-6.71C642.58,136.55,645,138.72,645.39,142.63Z" transform="translate(-35.32 -21.46)"/><path class="cls-1" d="M722.4,104.25c-.12,4.49-2.53,6.86-6.51,6.89-3.61,0-6.32-2.23-6.51-5.94-.2-4,2-6.73,6.17-7S721.83,100.51,722.4,104.25Z" transform="translate(-35.32 -21.46)"/><path class="cls-1" d="M684,104.7c-.55,4.09-2.78,6.66-6.88,6.41-3.52-.21-6.16-2.25-6.16-6.19,0-4.11,2.28-6.59,6.39-6.73C681.65,98,683.37,101,684,104.7Z" transform="translate(-35.32 -21.46)"/><path class="cls-1" d="M202.47,257.87c-.61,3.83-2.49,6.53-6.79,6.36-3.72-.14-6.12-2.22-6.31-6-.2-4.22,2.4-6.68,6.28-6.92C199.78,251,201.82,253.9,202.47,257.87Z" transform="translate(-35.32 -21.46)"/><path class="cls-1" d="M645.42,104.79c-.44,4.27-2.89,6.53-6.91,6.33-3.64-.19-6.22-2.62-6.17-6.3.06-3.87,2.38-6.64,6.59-6.64S645.06,100.88,645.42,104.79Z" transform="translate(-35.32 -21.46)"/><path class="cls-1" d="M599.44,98.08c5,.14,7.27,2.7,7.41,6.59a5.87,5.87,0,0,1-5.91,6.44c-3.89.17-6.77-1.79-7-6.08S596.44,98.9,599.44,98.08Z" transform="translate(-35.32 -21.46)"/><path class="cls-1" d="M722.41,47.34c-.33,4-2.61,6.25-6.3,6.29-4.05,0-6.9-2.37-6.73-6.52s2.89-6.47,7.06-6.18C720.23,41.19,722.2,43.63,722.41,47.34Z" transform="translate(-35.32 -21.46)"/><path class="cls-1" d="M793.24,40.79c3.61.57,6,2.47,6.08,6.37,0,4.31-2.62,6.56-6.67,6.47-3.69-.09-6.32-2.5-6.3-6.24C786.38,43.34,789,41.11,793.24,40.79Z" transform="translate(-35.32 -21.46)"/><path class="cls-1" d="M677.21,21.5c4.1.41,6.7,2.6,6.64,6.67-.05,3.53-2.07,6.29-5.94,6.47-4.08.18-6.62-2.08-6.95-6.19C670.63,24.11,673.46,22.31,677.21,21.5Z" transform="translate(-35.32 -21.46)"/><path class="cls-1" d="M356.49,28.29c-.91,3.85-2.76,6.73-7,6.34-4.08-.38-6.16-3.16-5.89-7.14A6,6,0,0,1,350,21.62C354,21.71,356.11,24.42,356.49,28.29Z" transform="translate(-35.32 -21.46)"/><path class="cls-1" d="M638.8,53.76c-4-.7-6.8-2.84-6.41-7a6,6,0,0,1,6.69-5.8c4.16.18,6.47,2.68,6.21,6.91C645.05,51.79,642.34,53.37,638.8,53.76Z" transform="translate(-35.32 -21.46)"/><path class="cls-1" d="M607,27.77c-.48,3.89-2.18,6.87-6.43,6.88-4.06,0-6.48-2.43-6.62-6.55-.13-3.93,2.41-6.09,5.94-6.43C604,21.28,606.24,23.82,607,27.77Z" transform="translate(-35.32 -21.46)"/><path class="cls-1" d="M41.31,79c4.24.54,7.11,2.59,7,6.67-.13,3.86-2.56,6.55-6.77,6.45-3.81-.1-5.91-2.45-6.16-6.17C35,81.57,37.8,79.77,41.31,79Z" transform="translate(-35.32 -21.46)"/><path class="cls-1" d="M272.92,40.79c4,.43,6.35,2.68,6.4,6.35.05,4.11-2.57,6.65-6.71,6.47-3.6-.15-6.23-2.26-6.25-6.2C266.34,43.1,269.13,41.27,272.92,40.79Z" transform="translate(-35.32 -21.46)"/><path class="cls-1" d="M125.45,47.39c-.6,3.85-2.75,6.33-6.49,6.25-3.93-.09-6.81-2.27-6.58-6.62s3-6.31,7.09-6.07C123.34,41.17,125,43.91,125.45,47.39Z" transform="translate(-35.32 -21.46)"/><path class="cls-1" d="M452.93,258.16c-.72,3.83-2.86,6.29-7.05,6.06-3.81-.2-5.92-2.47-6-6.28,0-4.21,2.44-6.71,6.43-6.66S452.57,254,452.93,258.16Z" transform="translate(-35.32 -21.46)"/><path class="cls-1" d="M452.93,161.83c-.27,4.16-2.6,6.67-6.56,6.79-3.58.11-6.2-1.93-6.43-5.84-.23-4.09,1.76-6.84,5.91-7.14S452.1,158,452.93,161.83Z" transform="translate(-35.32 -21.46)"/><path class="cls-1" d="M330.33,40.74c4.33.52,6.88,2.68,6.77,6.8-.11,3.77-2.66,6-6.31,6.11a5.93,5.93,0,0,1-6.46-5.93C324.09,43.64,326.63,41.41,330.33,40.74Z" transform="translate(-35.32 -21.46)"/><path class="cls-1" d="M349.73,53.75c-3.8-.66-6.46-2.72-6.16-6.93.27-3.7,2.68-6,6.44-5.91,4.17.09,6.48,2.79,6.3,6.8C356.14,51.42,353.58,53.41,349.73,53.75Z" transform="translate(-35.32 -21.46)"/><path class="cls-1" d="M530,162.11c-.55,4.12-2.9,6.6-6.91,6.51-3.6-.08-6.1-2.25-6.14-6.16,0-4.09,2.07-6.74,6.24-6.83S529.28,158.34,530,162.11Z" transform="translate(-35.32 -21.46)"/><path class="cls-1" d="M240.82,257.94c-.33,4-2.45,6.37-6.65,6.3-3.8-.07-6.15-2.4-6.33-6.05a6.19,6.19,0,0,1,6.31-6.91C238.16,251.11,240.5,253.65,240.82,257.94Z" transform="translate(-35.32 -21.46)"/><path class="cls-1" d="M446.21,53.77c-3.62-.55-6.24-2.21-6.29-6.2-.06-4.25,2.31-6.67,6.47-6.65A6,6,0,0,1,452.8,47C453,51.22,450.19,53.22,446.21,53.77Z" transform="translate(-35.32 -21.46)"/><path class="cls-1" d="M504.05,40.78c3.94.55,6.71,2.64,6.58,6.68s-3,6.31-6.95,6.17c-3.63-.14-6.09-2.45-6.13-6.19C497.51,43.35,500.05,41.23,504.05,40.78Z" transform="translate(-35.32 -21.46)"/><path class="cls-1" d="M523.12,53.77c-3.89-.7-6.33-2.56-6.2-6.53.14-4.27,2.66-6.52,6.8-6.31a6,6,0,0,1,6.11,6.4C529.79,51.51,526.87,53.4,523.12,53.77Z" transform="translate(-35.32 -21.46)"/><path class="cls-1" d="M562,53.78c-4.15-.46-6.67-2.6-6.68-6.31,0-4,2.38-6.71,6.65-6.55,3.68.15,6.19,2.27,6.32,6.15C568.45,51.48,565.44,53.09,562,53.78Z" transform="translate(-35.32 -21.46)"/><path class="cls-1" d="M587.79,47.07c-.48,4.15-2.9,6.53-6.8,6.58a5.93,5.93,0,0,1-6.41-5.9c-.22-4.08,2.11-6.64,6.18-6.83S587,43.27,587.79,47.07Z" transform="translate(-35.32 -21.46)"/><path class="cls-1" d="M664.8,143.21c-.74,3.8-2.82,6.43-7,6.13-4-.29-6.49-2.72-6.23-6.84.23-3.76,3-5.86,6.49-5.89C662.09,136.57,664.36,139.08,664.8,143.21Z" transform="translate(-35.32 -21.46)"/><path class="cls-1" d="M683.94,143.29c-.65,3.62-2.6,6.17-6.45,6.07-4-.1-6.69-2.38-6.53-6.66s3.11-6.27,7.09-6C681.84,136.91,683.71,139.51,683.94,143.29Z" transform="translate(-35.32 -21.46)"/><path class="cls-1" d="M195.85,53.74c-3.71-.55-6.6-2.28-6.48-6.65.1-3.89,2.61-6,6.29-6.16,4.26-.18,6.67,2.54,6.67,6.53C202.32,51.15,199.81,53.31,195.85,53.74Z" transform="translate(-35.32 -21.46)"/><path class="cls-1" d="M607,143.12c-.53,3.54-2.36,6.18-6.21,6.23-4,.05-6.77-2.12-6.79-6.4s2.89-6.39,6.85-6.31C604.57,136.72,606.58,139.26,607,143.12Z" transform="translate(-35.32 -21.46)"/><path class="cls-1" d="M587.8,142.85c-.55,3.9-2.72,6.48-6.73,6.51s-6.53-2.48-6.51-6.54c0-3.74,2.49-6,6.12-6.19C584.66,136.47,587.05,138.84,587.8,142.85Z" transform="translate(-35.32 -21.46)"/><path class="cls-1" d="M568.38,143.57c-.73,3.85-3.18,6.1-7.29,5.75-3.81-.32-5.92-3-5.76-6.67a5.92,5.92,0,0,1,6.44-6C565.72,136.75,568.28,139,568.38,143.57Z" transform="translate(-35.32 -21.46)"/><path class="cls-1" d="M183.22,47c-.37,4.17-2.65,6.63-6.64,6.64-3.55,0-6.27-2.14-6.53-5.84-.29-4.08,2.23-6.56,6.19-6.86C180.37,40.62,182.5,43.18,183.22,47Z" transform="translate(-35.32 -21.46)"/><path class="cls-1" d="M510.79,142.82c-.52,3.91-2.68,6.48-6.69,6.54s-6.54-2.45-6.55-6.5c0-3.75,2.47-6.06,6.09-6.23C507.63,136.45,510,138.81,510.79,142.82Z" transform="translate(-35.32 -21.46)"/><path class="cls-1" d="M491.38,143.53c-.7,3.85-3.14,6.11-7.24,5.8-3.83-.29-5.95-3-5.82-6.63a5.94,5.94,0,0,1,6.4-6.09C488.67,136.71,491.25,139,491.38,143.53Z" transform="translate(-35.32 -21.46)"/><path class="cls-1" d="M414.41,142.88c-.38,4.14-2.76,6.48-6.83,6.48-3.85,0-6.13-2.55-6.26-6.22a5.88,5.88,0,0,1,6-6.48C411.3,136.45,413.87,138.62,414.41,142.88Z" transform="translate(-35.32 -21.46)"/><path class="cls-1" d="M240.76,46.53c.1,4.35-2,6.73-5.71,7.07-4,.36-7-1.84-7.18-6s2.4-6.63,6.52-6.69C238.17,40.87,240.33,43.14,240.76,46.53Z" transform="translate(-35.32 -21.46)"/><path class="cls-1" d="M202.46,143c-.55,3.52-2.31,6.22-6.18,6.33-4.06.11-6.83-2-6.91-6.3s2.83-6.45,6.78-6.41C199.93,136.67,202,139.21,202.46,143Z" transform="translate(-35.32 -21.46)"/><path class="cls-1" d="M176.76,149.5C172.8,149,170,147,170,143s2.87-6.38,6.79-6.34a5.94,5.94,0,0,1,6.28,6C183.23,146.76,180.72,148.92,176.76,149.5Z" transform="translate(-35.32 -21.46)"/><path class="cls-1" d="M157.17,149.49c-4-.7-6.59-2.85-6.3-7,.26-3.81,3-5.95,6.64-5.81,4.07.15,6.52,2.56,6.2,6.88C163.41,147.42,160.88,149.14,157.17,149.49Z" transform="translate(-35.32 -21.46)"/><path class="cls-1" d="M163.76,46.1c0,4.88-2.12,7.22-5.8,7.5-4.06.32-7-2-7.1-6.08s2.47-6.59,6.62-6.6A6,6,0,0,1,163.76,46.1Z" transform="translate(-35.32 -21.46)"/><path class="cls-1" d="M118.88,149.49c-3.8-.52-6.57-2.37-6.53-6.68,0-4,2.7-6,6.3-6.17,4.13-.15,6.74,2.4,6.65,6.53C125.23,146.85,122.84,149.06,118.88,149.49Z" transform="translate(-35.32 -21.46)"/><path class="cls-1" d="M99.79,149.57c-4.26-.76-7-2.85-6.75-6.93s3.13-6.24,7.09-6a5.94,5.94,0,0,1,6,6.34C106.07,147.14,103.28,149,99.79,149.57Z" transform="translate(-35.32 -21.46)"/><path class="cls-1" d="M260.24,47.29c-.59,4.05-2.85,6.48-6.89,6.33-3.6-.14-6.22-2.37-6.32-6.06-.11-4,2.46-6.51,6.46-6.64S259.69,43.38,260.24,47.29Z" transform="translate(-35.32 -21.46)"/><path class="cls-1" d="M453,334.43c-.66,4.14-3.11,6.56-7.17,6.3-3.65-.23-6-2.56-5.87-6.52s2.44-6.17,6.15-6.25C450.16,327.87,452.42,330.43,453,334.43Z" transform="translate(-35.32 -21.46)"/><path class="cls-1" d="M234.26,98.07c4.06.32,6.38,2.51,6.49,6.64.1,3.91-2.28,6.17-5.88,6.4-4,.26-6.87-2-7-6.11S230.11,98.6,234.26,98.07Z" transform="translate(-35.32 -21.46)"/><path class="cls-1" d="M253.67,327.79c3.93.6,6.53,2.69,6.43,6.8a6,6,0,0,1-6.2,6.16c-3.93.09-6.78-2.25-6.88-6.29S249.79,328.4,253.67,327.79Z" transform="translate(-35.32 -21.46)"/><path class="cls-1" d="M240.81,333.63c-.12,4.58-2.35,6.92-6,7.11-4,.21-6.92-2.22-6.95-6.32s2.72-6.57,6.82-6.46A6,6,0,0,1,240.81,333.63Z" transform="translate(-35.32 -21.46)"/><path class="cls-1" d="M446.36,111.29c-3.88-.59-6.59-2.38-6.44-6.72.12-3.74,2.12-6.16,5.92-6.38,4.21-.24,6.67,2.3,7,6.22C453.09,108.58,450.24,110.57,446.36,111.29Z" transform="translate(-35.32 -21.46)"/><path class="cls-1" d="M741.8,46.91c-.34,4.12-2.56,6.67-6.54,6.74-3.54.06-6.29-2-6.63-5.73-.38-4.12,2.11-6.59,6.06-7C738.84,40.54,741,43.11,741.8,46.91Z" transform="translate(-35.32 -21.46)"/><path class="cls-1" d="M683.94,46.93c-.21,3.76-2,6.38-5.84,6.65-4,.28-6.92-1.66-7.13-6s2.4-6.57,6.47-6.7C681.31,40.79,683.26,43.31,683.94,46.93Z" transform="translate(-35.32 -21.46)"/><path class="cls-2" d="M163.78,104.1c0,4.57-2.37,7-6.36,7-3.6.08-6.3-2.09-6.55-5.84-.26-4,1.92-6.74,6-7.08S163.22,100.41,163.78,104.1Z" transform="translate(-35.32 -21.46)"/><path class="cls-1" d="M337.25,27.89c-.5,3.83-2.28,6.68-6.45,6.76s-6.4-2.8-6.5-6.61a6,6,0,0,1,5.95-6.39C334.29,21.42,336.56,23.89,337.25,27.89Z" transform="translate(-35.32 -21.46)"/><path class="cls-1" d="M529.94,104.38c-.29,4.19-2.64,6.67-6.6,6.75-3.57.08-6.22-1.91-6.4-5.86s1.75-6.79,5.95-7.07S529.12,100.6,529.94,104.38Z" transform="translate(-35.32 -21.46)"/><path class="cls-1" d="M658.51,340.91c-3.8-.47-6.78-2.24-6.92-6.35s2.61-6.47,6.52-6.62c3.68-.15,6.17,2.18,6.52,5.82C665,337.9,662.39,340,658.51,340.91Z" transform="translate(-35.32 -21.46)"/><path class="cls-1" d="M677.49,340.91c-3.71-.65-6.64-2.3-6.55-6.71.07-3.95,2.61-6.08,6.23-6.24,4.19-.18,6.67,2.47,6.68,6.54C683.86,338.27,681.31,340.32,677.49,340.91Z" transform="translate(-35.32 -21.46)"/><path class="cls-1" d="M664.81,47.28c-.62,4-2.84,6.52-6.9,6.35-3.57-.15-6.2-2.33-6.32-6.06-.12-4.08,2.45-6.5,6.44-6.65S664.21,43.4,664.81,47.28Z" transform="translate(-35.32 -21.46)"/><path class="cls-1" d="M761,46.81c-.32,4-2.24,6.62-6,6.79-4,.17-6.89-1.84-7-6.16s2.59-6.48,6.65-6.54S760.27,43.56,761,46.81Z" transform="translate(-35.32 -21.46)"/><path class="cls-1" d="M453,315.22c-.67,3.75-2.54,6.52-6.78,6.43s-6.28-2.7-6.25-6.78c0-3.92,2.51-6,6.13-6.11C450.07,308.66,452.44,311.05,453,315.22Z" transform="translate(-35.32 -21.46)"/><path class="cls-1" d="M157.49,79c4.08.81,6.6,2.83,6.22,7.12-.34,3.72-2.5,6-6.3,6-4.2,0-6.55-2.73-6.58-6.62C150.8,81.35,153.75,79.45,157.49,79Z" transform="translate(-35.32 -21.46)"/><path class="cls-1" d="M240.81,85.82c-.43,3.79-2.44,6.42-6.65,6.26s-6.39-2.9-6.31-6.86c.08-3.76,2.73-6,6.33-6.09C238.15,79.07,240.64,81.33,240.81,85.82Z" transform="translate(-35.32 -21.46)"/><path class="cls-1" d="M741.81,334.59c-.78,3.92-3,6.45-7.09,6.14-3.51-.28-6.15-2.51-6.14-6.27,0-4.1,2.73-6.49,6.64-6.51S741.37,330.61,741.81,334.59Z" transform="translate(-35.32 -21.46)"/><path class="cls-1" d="M445.8,79c4.24.47,7.09,2.5,7,6.58-.08,3.89-2.47,6.58-6.67,6.54-3.81,0-5.92-2.36-6.22-6.09C439.58,81.65,442.26,79.8,445.8,79Z" transform="translate(-35.32 -21.46)"/><path class="cls-1" d="M523.14,92.2c-4-.45-6.22-2.72-6.23-6.84,0-3.93,2.46-6.09,6.06-6.22,4-.15,6.83,2.25,6.85,6.31S527.39,91.82,523.14,92.2Z" transform="translate(-35.32 -21.46)"/><path class="cls-1" d="M100,53.75c-4-.33-6.86-2.23-7-6.28S95.57,41,99.57,40.9a5.94,5.94,0,0,1,6.49,5.79C106.44,50.84,103.87,53,100,53.75Z" transform="translate(-35.32 -21.46)"/><path class="cls-1" d="M607,47.11c-.48,4.08-2.62,6.55-6.36,6.52-3.92,0-6.81-2.13-6.65-6.51s2.9-6.35,7-6.19S606.47,43.84,607,47.11Z" transform="translate(-35.32 -21.46)"/><path class="cls-1" d="M234.35,321.76c-4.23-.44-6.61-2.9-6.51-6.84.11-4.09,3-6.37,7-6.15,3.63.2,6,2.42,5.93,6.32C240.67,319.22,238.38,321.43,234.35,321.76Z" transform="translate(-35.32 -21.46)"/><path class="cls-1" d="M510.84,66.5c-.94,4.27-3.21,6.53-7.36,6.25-3.84-.26-6-2.64-5.9-6.33.11-4,2.52-6.5,6.69-6.38S510.2,63,510.84,66.5Z" transform="translate(-35.32 -21.46)"/><path class="cls-1" d="M100,60c4,.52,6.27,3,6,7-.22,3.66-2.62,5.88-6.44,5.82-4.11-.07-6.71-2.41-6.57-6.48S95.81,60.13,100,60Z" transform="translate(-35.32 -21.46)"/><path class="cls-1" d="M67.46,66.79c-.57,4.26-3.08,6.27-7.21,5.94-3.93-.32-5.76-2.85-5.55-6.66s2.43-6.06,6.3-6C65.22,60.15,67.26,62.69,67.46,66.79Z" transform="translate(-35.32 -21.46)"/><path class="cls-1" d="M138.4,72.83c-4-.16-6.65-2-6.68-6.34,0-3.85,2.16-6.16,5.95-6.4,4.25-.26,6.62,2.1,6.72,6.31C144.49,70.24,142.4,72.43,138.4,72.83Z" transform="translate(-35.32 -21.46)"/><path class="cls-1" d="M664.8,181.22c-.63,3.9-2.6,6.65-6.78,6.49s-6.54-2.69-6.41-6.75c.11-3.69,2.53-5.86,6.3-6C662.16,174.79,664.17,177.28,664.8,181.22Z" transform="translate(-35.32 -21.46)"/><path class="cls-1" d="M472,66.46c-.35,4.26-2.72,6.43-6.89,6.29-3.92-.13-5.95-2.49-5.9-6.34s2.07-6.25,6-6.35C469.38,60,471.66,62.29,472,66.46Z" transform="translate(-35.32 -21.46)"/><path class="cls-1" d="M620.2,187.8c-4.24-.27-6.85-2.23-6.93-6.49-.06-3.86,2.13-6.1,6-6.34s6.33,1.65,6.69,5.54C626.32,184.66,624.22,187.13,620.2,187.8Z" transform="translate(-35.32 -21.46)"/><path class="cls-1" d="M427.37,72.84c-4.2-.11-6.75-2.21-6.79-6.33,0-3.63,2-6.15,5.86-6.44,4.14-.32,6.82,2,7.15,5.94S431.38,72.35,427.37,72.84Z" transform="translate(-35.32 -21.46)"/><path class="cls-1" d="M587.79,181.2c-.65,3.93-2.74,6.57-6.84,6.51s-6.47-2.7-6.36-6.73c.1-3.69,2.38-5.95,6.22-6C585,174.87,587.11,177.25,587.79,181.2Z" transform="translate(-35.32 -21.46)"/><path class="cls-1" d="M503.67,187.8c-4-.59-6.33-3-6.08-7,.22-3.68,2.59-5.89,6.42-5.83,4.13.06,6.72,2.4,6.59,6.46S507.82,187.56,503.67,187.8Z" transform="translate(-35.32 -21.46)"/><path class="cls-1" d="M664.8,238.62c-.57,3.66-2.35,6.18-6.28,6.27-4.15.1-6.9-2.1-6.9-6.24s2.73-6.34,6.9-6.24C662.48,232.5,664.2,235,664.8,238.62Z" transform="translate(-35.32 -21.46)"/><path class="cls-1" d="M214.92,60c4,.19,6.28,2.2,6.47,6,.21,4.18-1.91,6.72-6.24,6.73-3.81,0-6.24-2-6.43-5.88C208.53,62.64,210.92,60.45,214.92,60Z" transform="translate(-35.32 -21.46)"/><path class="cls-1" d="M504.74,245c-4.39-.05-6.9-2.06-7.15-5.79-.26-4.09,2.05-6.65,6.33-6.77,3.84-.11,6.39,2.07,6.68,5.73C510.94,242.3,508.26,244.46,504.74,245Z" transform="translate(-35.32 -21.46)"/><path class="cls-1" d="M433.85,238.51c-.9,4.35-3.18,6.65-7.38,6.37-3.89-.27-6.08-2.71-5.88-6.45.21-4.12,2.82-6.29,7.06-6C431.6,232.69,433.14,235.36,433.85,238.51Z" transform="translate(-35.32 -21.46)"/><path class="cls-1" d="M183.22,66.66c-.71,4-2.86,6.35-7.07,6.09-3.79-.23-6.12-2.52-6.11-6.18,0-4,2.5-6.51,6.61-6.52S182.73,62.77,183.22,66.66Z" transform="translate(-35.32 -21.46)"/><path class="cls-1" d="M260.22,238.38c-.37,3.65-2.05,6.21-6,6.49-4.17.3-7-1.84-7.19-5.93s2.42-6.48,6.61-6.54C257.59,232.34,259.5,234.72,260.22,238.38Z" transform="translate(-35.32 -21.46)"/><path class="cls-1" d="M427.22,187.81c-4.12-.29-6.6-2.52-6.64-6.57,0-3.69,2.11-6.06,6-6.27,4.13-.22,6.87,2,7.05,6S431.22,187.26,427.22,187.81Z" transform="translate(-35.32 -21.46)"/><path class="cls-1" d="M433.78,124c-.85,3.89-3,6.43-7.13,6.19s-6.33-3-6.06-7c.24-3.69,2.7-5.85,6.51-5.75C431.24,117.58,433.31,120,433.78,124Z" transform="translate(-35.32 -21.46)"/><path class="cls-1" d="M664.8,296.2c-.71,4-2.83,6.4-7,6.15-3.73-.22-6.15-2.43-6.16-6.15,0-4,2.44-6.51,6.55-6.57S664.24,292.33,664.8,296.2Z" transform="translate(-35.32 -21.46)"/><path class="cls-1" d="M221.48,123.84c-.31,4-2.33,6.53-6.64,6.35-3.79-.15-6.07-2.4-6.12-6.25-.06-4.29,2.44-6.46,6.62-6.43C219.28,117.55,221.2,119.86,221.48,123.84Z" transform="translate(-35.32 -21.46)"/><path class="cls-1" d="M696.78,289.57c4.3.41,6.39,2.86,6.18,7-.19,3.92-2.65,5.89-6.47,5.78s-6.19-2.2-6.21-6.1C690.25,292.06,692.63,289.85,696.78,289.57Z" transform="translate(-35.32 -21.46)"/><path class="cls-1" d="M183.23,123.83c-.65,3.88-2.6,6.57-6.82,6.39s-6.51-2.75-6.37-6.76c.13-3.66,2.57-5.86,6.35-6C180.61,117.37,182.67,119.81,183.23,123.83Z" transform="translate(-35.32 -21.46)"/><path class="cls-1" d="M741.8,295.76c-.38,3.95-2.32,6.54-6.51,6.62-3.73.07-6.34-2-6.65-5.67-.34-4,1.89-6.65,6-7S740.93,291.87,741.8,295.76Z" transform="translate(-35.32 -21.46)"/><path class="cls-1" d="M138.15,130.29c-4-.34-6.48-2.38-6.44-6.64,0-3.91,2.35-6,6.18-6.13,4.29-.12,6.59,2.23,6.51,6.47C144.33,127.81,142.16,130,138.15,130.29Z" transform="translate(-35.32 -21.46)"/><path class="cls-1" d="M99.91,117.42c4.22.51,6.51,2.94,6.14,7-.32,3.58-2.69,6-6.5,5.84-4.08-.13-6.61-2.63-6.51-6.64S95.92,117.54,99.91,117.42Z" transform="translate(-35.32 -21.46)"/><path class="cls-1" d="M542.44,72.83c-4.05-.31-6.21-2.42-6.19-6.29,0-4.19,2.3-6.64,6.58-6.46,3.79.16,6.06,2.41,6.11,6.26C549,70.67,546.39,72.6,542.44,72.83Z" transform="translate(-35.32 -21.46)"/><path class="cls-1" d="M581,72.85c-4.08-.3-6.53-2.52-6.38-6.63.13-3.63,2.33-6.07,6.15-6.17,4.13-.12,6.73,2.29,6.87,6.25S585.1,72.54,581,72.85Z" transform="translate(-35.32 -21.46)"/><path class="cls-1" d="M620,72.85c-4.15-.29-6.61-2.15-6.72-6-.12-4.17,2.17-6.7,6.38-6.72s6.41,2.58,6.3,6.75C625.85,70.78,623.41,72.56,620,72.85Z" transform="translate(-35.32 -21.46)"/><path class="cls-1" d="M664.8,66.68c-.76,4-2.9,6.37-7.11,6.07-3.77-.26-6.11-2.52-6.08-6.22,0-4,2.55-6.48,6.63-6.49S664.3,62.81,664.8,66.68Z" transform="translate(-35.32 -21.46)"/><path class="cls-1" d="M696.33,60c3.88.1,6.32,2,6.62,5.81.32,4.15-1.69,6.79-6,7-3.81.14-6.35-1.81-6.63-5.67C690,62.93,692.22,60.53,696.33,60Z" transform="translate(-35.32 -21.46)"/><path class="cls-1" d="M741.81,66.37c-.54,3.95-2.53,6.48-6.75,6.41-3.76-.06-6.25-2.2-6.45-5.88-.21-4,2.19-6.6,6.27-6.84C739.12,59.8,741.07,62.49,741.81,66.37Z" transform="translate(-35.32 -21.46)"/><path class="cls-1" d="M773.33,60c3.89.1,6.32,2,6.62,5.81.32,4.15-1.68,6.79-6,7-3.81.14-6.34-1.81-6.63-5.67C767,62.93,769.22,60.53,773.33,60Z" transform="translate(-35.32 -21.46)"/><path class="cls-1" d="M234.39,347c3.92.25,6.26,2.39,6.33,6.53.07,3.84-2.14,6.05-5.89,6.28-4.09.25-6.85-1.95-7-6S230,347.37,234.39,347Z" transform="translate(-35.32 -21.46)"/><path class="cls-1" d="M741.81,353.74c-.76,4-3,6.4-7.14,6.08-3.69-.28-6.13-2.51-6.06-6.25.07-4,2.51-6.48,6.66-6.48S741.27,349.92,741.81,353.74Z" transform="translate(-35.32 -21.46)"/><path class="cls-1" d="M696.57,117.45c3.83.15,6.24,2,6.39,5.91.16,4.16-1.94,6.81-6.22,6.83s-6.54-2.49-6.46-6.66C690.35,119.63,692.77,117.73,696.57,117.45Z" transform="translate(-35.32 -21.46)"/><path class="cls-1" d="M658.57,130.3c-4.13-.17-6.79-2.29-7-6.3s2.45-6.4,6.53-6.52c3.83-.11,6.25,2.16,6.48,5.79C664.89,127.24,662.64,129.75,658.57,130.3Z" transform="translate(-35.32 -21.46)"/><path class="cls-1" d="M472,276.4c-.06,4.33-2.29,6.93-6.25,7.13s-6.43-2.45-6.56-6.51c-.11-3.77,2.07-6.27,5.77-6.5C469,270.26,471.48,272.45,472,276.4Z" transform="translate(-35.32 -21.46)"/><path class="cls-1" d="M696.56,270.36c4,.47,6.49,2.52,6.44,6.72,0,3.77-2.24,6.27-5.89,6.46-4,.21-6.61-2.18-6.84-6.28S692.65,271,696.56,270.36Z" transform="translate(-35.32 -21.46)"/><path class="cls-1" d="M298.51,277c-.41,4-2.54,6.74-6.71,6.51-3.69-.2-5.92-2.72-5.9-6.54,0-4.25,2.52-6.64,6.64-6.48C296.31,270.66,298.3,273.18,298.51,277Z" transform="translate(-35.32 -21.46)"/><path class="cls-1" d="M626,124c-.32,3.75-2.24,6.16-6.12,6.22-4.2.06-6.65-2.31-6.62-6.5s2.7-6.36,6.85-6.18C624.06,117.7,625.9,120.1,626,124Z" transform="translate(-35.32 -21.46)"/><path class="cls-1" d="M529.93,143.32c-.83,3.92-3.14,6.38-7.29,6-3.74-.34-5.85-2.76-5.73-6.64s2.64-6.07,6.3-6.06C527.26,136.64,529.62,139.09,529.93,143.32Z" transform="translate(-35.32 -21.46)"/><path class="cls-1" d="M587.83,123.38c-.59,4.15-2.61,6.81-6.72,6.85s-6.52-2.53-6.52-6.56c0-3.69,2.23-6,6.07-6.17C584.86,117.29,586.93,119.75,587.83,123.38Z" transform="translate(-35.32 -21.46)"/><path class="cls-1" d="M221.51,277.11c-.47,4-2.62,6.69-6.72,6.42-3.94-.27-6.3-2.86-6.08-7,.21-3.85,2.7-5.94,6.31-6C219.16,270.45,221.27,273,221.51,277.11Z" transform="translate(-35.32 -21.46)"/><path class="cls-1" d="M253.68,289.55c4.1.32,6.44,2.69,6.4,6.7,0,3.7-2.36,6-6.16,6.11-4.08.1-6.81-2.11-6.87-6.18S249.51,289.87,253.68,289.55Z" transform="translate(-35.32 -21.46)"/><path class="cls-1" d="M542.46,117.43c4.22.35,6.68,2.45,6.47,6.74-.19,3.83-2.57,6-6.36,6-4.31,0-6.41-2.59-6.32-6.73C536.34,119.56,538.69,117.64,542.46,117.43Z" transform="translate(-35.32 -21.46)"/><path class="cls-1" d="M433.78,296.35c-.87,4-3.17,6.26-7.29,6-3.81-.24-6-2.62-5.91-6.32.12-4,2.47-6.52,6.68-6.38S433.29,292.51,433.78,296.35Z" transform="translate(-35.32 -21.46)"/><path class="cls-1" d="M510.84,123.49c-.72,4.18-2.76,6.8-6.91,6.74s-6.44-2.71-6.35-6.72c.09-3.71,2.42-5.92,6.24-6C508,117.38,510,119.93,510.84,123.49Z" transform="translate(-35.32 -21.46)"/><path class="cls-1" d="M465.15,117.43c4.19.2,6.81,2.1,6.78,6.44,0,3.84-2.27,6.13-6.06,6.32-4.27.21-6.56-2.23-6.62-6.42C459.19,119.89,461.35,117.79,465.15,117.43Z" transform="translate(-35.32 -21.46)"/><path class="cls-1" d="M317.81,28.47c-.47,3.79-2.58,6.41-6.79,6.17-3.83-.22-5.84-2.88-5.81-6.6,0-4.22,2.61-6.65,6.71-6.37C315.54,21.91,317.78,24.27,317.81,28.47Z" transform="translate(-35.32 -21.46)"/><path class="cls-1" d="M472,334.41c-.36,4.32-3,6.51-7,6.33-3.66-.17-6-2.59-5.88-6.48s2.35-6.23,6.08-6.29C469.32,327.9,471.76,330.24,472,334.41Z" transform="translate(-35.32 -21.46)"/><path class="cls-1" d="M465.66,193.64c3.93.82,6.52,2.85,6.28,7.06S469,207,465,206.77c-3.77-.21-5.82-2.69-5.78-6.44C459.26,196.17,461.75,194.12,465.66,193.64Z" transform="translate(-35.32 -21.46)"/><path class="cls-1" d="M215.32,340.89c-3.79-.51-6.64-2.22-6.64-6.57,0-3.9,2.44-6.15,6.07-6.35,4.13-.21,6.62,2.23,6.69,6.42C221.5,338.26,219.07,340.23,215.32,340.89Z" transform="translate(-35.32 -21.46)"/><path class="cls-1" d="M292.06,34.78c-4.05-.63-6.29-2.93-6.14-7.1.14-3.94,2.67-6.05,6.32-6s6.12,2.28,6.18,6.17C298.49,31.94,296.27,34.3,292.06,34.78Z" transform="translate(-35.32 -21.46)"/><path class="cls-1" d="M472,257.64c-.14,3.95-2.21,6.41-6.34,6.58-3.8.15-6.1-2-6.43-5.73-.36-4.12,1.79-6.94,5.79-7.2S471.56,253.3,472,257.64Z" transform="translate(-35.32 -21.46)"/><path class="cls-1" d="M369.26,34.78c-4.09-.5-6.38-2.75-6.35-6.92,0-3.94,2.5-6.12,6.15-6.21s6.19,2.09,6.35,6C375.59,31.76,373.42,34.16,369.26,34.78Z" transform="translate(-35.32 -21.46)"/><path class="cls-1" d="M221.5,219.43c-.36,4.16-2.52,6.83-6.6,6.63s-6.36-2.73-6.19-6.91c.15-3.85,2.55-6,6.2-6.09C219.09,212.92,221.18,215.46,221.5,219.43Z" transform="translate(-35.32 -21.46)"/><path class="cls-1" d="M626,27.77c-.16,4-2,6.77-6.19,6.86s-6.45-2.44-6.61-6.5c-.15-3.86,2.3-6.16,5.85-6.46C623.08,21.33,625.6,23.54,626,27.77Z" transform="translate(-35.32 -21.46)"/><path class="cls-1" d="M369.05,212.86c4.11.65,6.41,2.7,6.38,6.55,0,4.15-2.39,6.85-6.51,6.64s-6.26-3-6-7.16C363.18,214.91,365.87,213.4,369.05,212.86Z" transform="translate(-35.32 -21.46)"/><path class="cls-1" d="M394.8,220.05c-.53,3.84-2.87,6.37-7,6-3.66-.33-5.8-3-5.61-6.79.2-4.22,2.72-6.56,6.88-6.18C392.84,213.43,394.8,215.93,394.8,220.05Z" transform="translate(-35.32 -21.46)"/><path class="cls-1" d="M234.9,302.45c-4.73-.29-7.22-2.55-7-6.61s2.66-6.39,6.85-6.19c3.81.18,5.88,2.48,6,6.22C240.87,300.16,238.29,302,234.9,302.45Z" transform="translate(-35.32 -21.46)"/><path class="cls-2" d="M472,219.71c-.46,4.14-2.93,6.57-6.87,6.36s-6.19-3-5.91-7.13c.26-3.79,2.58-6,6.34-5.88C469.63,213.18,471.87,215.59,472,219.71Z" transform="translate(-35.32 -21.46)"/><path class="cls-1" d="M445.65,289.6c4.46,0,7,2.27,7.14,6.24s-2.31,6.46-6.45,6.52c-3.76.06-6.17-1.93-6.4-5.75C439.69,292.53,441.8,290.12,445.65,289.6Z" transform="translate(-35.32 -21.46)"/><path class="cls-1" d="M529.93,296.05c-.51,4.05-2.67,6.39-6.82,6.31-3.78-.08-6.07-2.15-6.17-6-.09-4.09,2-6.61,6.23-6.72S529.34,292.17,529.93,296.05Z" transform="translate(-35.32 -21.46)"/><path class="cls-1" d="M138.38,187.8c-4.13-.38-6.69-2.38-6.67-6.66,0-3.89,2.32-6,6.14-6.16,4.3-.15,6.59,2.21,6.55,6.44C144.37,185.27,142.12,187.34,138.38,187.8Z" transform="translate(-35.32 -21.46)"/><path class="cls-1" d="M446.42,117.44c4.38.4,6.7,2.87,6.36,6.87s-3,6.26-7.14,5.89c-3.77-.34-5.76-2.76-5.7-6.5C440,119.43,442.54,117.55,446.42,117.44Z" transform="translate(-35.32 -21.46)"/><path class="cls-1" d="M388.85,155.51c4,.75,6.15,3.13,5.87,7.28-.27,3.93-2.91,6-6.52,5.82-4.07-.22-6.35-2.89-5.93-7.12C382.63,157.7,385,155.74,388.85,155.51Z" transform="translate(-35.32 -21.46)"/><path class="cls-1" d="M472,161.91c-.17,4.45-2.71,6.69-6.62,6.7-3.63,0-6.08-2.22-6.17-6.06-.1-4,1.91-6.8,6.1-6.91S471.59,158.09,472,161.91Z" transform="translate(-35.32 -21.46)"/><path class="cls-1" d="M375.5,162.2c-.3,4.1-2.55,6.44-6.24,6.41-4,0-6.55-2.45-6.33-6.76.19-3.78,2.34-6.19,6.16-6.21C373.38,155.61,375.23,158.39,375.5,162.2Z" transform="translate(-35.32 -21.46)"/><path class="cls-1" d="M452.93,181.23c-.57,4-2.62,6.56-6.77,6.46s-6.35-2.63-6.22-6.75c.12-3.82,2.37-5.9,6.17-6C450.32,174.87,452.39,177.27,452.93,181.23Z" transform="translate(-35.32 -21.46)"/><path class="cls-1" d="M465.38,187.79c-4-.44-6.12-2.61-6.13-6.44,0-4.26,2.32-6.56,6.61-6.36,3.82.17,6.09,2.33,6.08,6.23C471.92,185.51,469.29,187.45,465.38,187.79Z" transform="translate(-35.32 -21.46)"/><path class="cls-1" d="M516.81,181.85c.33-4.66,2.46-6.94,6.66-6.9,3.83,0,6.17,2.28,6.33,5.92.18,4-2.13,6.65-6.25,6.84S517.38,185.27,516.81,181.85Z" transform="translate(-35.32 -21.46)"/><path class="cls-1" d="M542.62,174.88c3.93.44,6.32,2.34,6.32,6.27,0,4.25-2.52,6.59-6.63,6.52-4.3-.06-6.29-2.89-6-7C536.49,176.76,539,175,542.62,174.88Z" transform="translate(-35.32 -21.46)"/><path class="cls-1" d="M138.13,168.77c-3.87-.69-6.65-2.5-6.43-6.8.21-4.09,2.66-6.46,6.74-6.34,3.79.12,5.83,2.62,6,6.32C144.58,166.17,142.05,168.18,138.13,168.77Z" transform="translate(-35.32 -21.46)"/><path class="cls-1" d="M522.82,117.45c4.49.11,7,2.34,7,6.38s-2.49,6.46-6.66,6.39c-3.8-.07-6-2.3-6.18-6C516.73,120,519,117.8,522.82,117.45Z" transform="translate(-35.32 -21.46)"/><path class="cls-1" d="M542.61,168.77c-3.91-.52-6.48-2.49-6.39-6.71.08-3.69,2.09-6.25,5.87-6.42,4.07-.2,6.58,2.12,6.85,6.22C549.23,166.15,546.5,168,542.61,168.77Z" transform="translate(-35.32 -21.46)"/><path class="cls-1" d="M375.49,200.24c-.08,3.62-1.86,6.23-5.69,6.51-4.14.31-6.72-1.91-6.87-6.17s2.33-6.77,6.38-6.78C373,193.79,375.15,196.28,375.49,200.24Z" transform="translate(-35.32 -21.46)"/><path class="cls-1" d="M394.8,200.88c-.46,3.63-2.53,6-6.35,5.9-4.25-.07-6.39-2.68-6.21-6.85.17-3.82,2.55-6.22,6.25-6.13C392.55,193.9,394.73,196.56,394.8,200.88Z" transform="translate(-35.32 -21.46)"/><path class="cls-1" d="M722.4,295.68c-.18,4.19-2.24,6.59-6.41,6.69-3.79.09-6.32-2.05-6.59-5.68-.29-3.91,1.81-6.72,6-7S721.76,291.75,722.4,295.68Z" transform="translate(-35.32 -21.46)"/><path class="cls-1" d="M157.79,130.28c-4.44-.15-6.9-2.48-6.94-6.45s2.47-6.39,6.64-6.33c3.8.06,6.08,2.12,6.22,5.94C163.86,127.57,161.6,129.82,157.79,130.28Z" transform="translate(-35.32 -21.46)"/><path class="cls-1" d="M195.63,130.3c-3.78-.47-6.35-2.53-6.24-6.69s2.82-6.18,6.87-6.11,6,2.55,6,6.16C202.31,127.59,200.07,130.1,195.63,130.3Z" transform="translate(-35.32 -21.46)"/><path class="cls-1" d="M221.49,315.33c-.37,3.73-2.23,6.43-6.5,6.31s-6.3-2.68-6.3-6.75c0-3.91,2.56-6,6.13-6.12C218.85,308.61,221.26,310.87,221.49,315.33Z" transform="translate(-35.32 -21.46)"/><path class="cls-1" d="M125.44,123.81c-.63,3.84-2.46,6.62-6.73,6.4-4.07-.2-6.46-2.6-6.33-6.73.11-3.82,2.56-5.81,6.27-6C122.92,117.31,124.88,119.84,125.44,123.81Z" transform="translate(-35.32 -21.46)"/><path class="cls-1" d="M684,295.87c-.48,4.17-2.5,6.65-6.73,6.49-3.69-.15-6.16-2.12-6.27-6-.13-4.11,2.17-6.52,6.27-6.75C681.58,289.41,683.32,292.21,684,295.87Z" transform="translate(-35.32 -21.46)"/><path class="cls-1" d="M774,98.08c4.07.62,6.12,3,6,7.1-.15,3.91-2.67,6-6.27,5.94-3.93-.06-6.61-2.33-6.44-6.57C767.43,100.46,769.91,98.36,774,98.08Z" transform="translate(-35.32 -21.46)"/><path class="cls-1" d="M485.07,302.48c-4.68-.39-7-2.82-6.72-6.85.22-3.55,2.38-6.07,6.28-6,4.06.06,6.58,2.3,6.65,6.43C491.35,300.38,488.43,302,485.07,302.48Z" transform="translate(-35.32 -21.46)"/><path class="cls-1" d="M472,295.88c-.21,4.25-2.51,6.49-6.68,6.47-3.9,0-6.07-2.27-6.1-6.15s1.86-6.33,5.77-6.54C469.18,289.44,471.52,291.71,472,295.88Z" transform="translate(-35.32 -21.46)"/><path class="cls-1" d="M484.93,130.3c-4.43-.24-6.64-2.78-6.59-6.71,0-3.62,2.23-6.07,6.12-6.09,4,0,6.75,2,6.81,6.18S488.72,129.87,484.93,130.3Z" transform="translate(-35.32 -21.46)"/><path class="cls-1" d="M272.12,289.57c5,.11,7.15,2.67,7.19,6.57,0,3.63-2.15,6.11-6,6.21s-6.76-1.84-6.92-6.06S268.89,290.14,272.12,289.57Z" transform="translate(-35.32 -21.46)"/><path class="cls-1" d="M562.11,117.45c3.61.34,6.3,2.26,6.16,6.49s-2.74,6.32-6.8,6.29c-3.88,0-6-2.62-6.12-6.17C555.22,120.07,557.44,117.57,562.11,117.45Z" transform="translate(-35.32 -21.46)"/><path class="cls-1" d="M607,123.63c-.4,3.74-2.1,6.61-6.37,6.59-4,0-6.55-2.27-6.62-6.43-.06-3.83,2.21-6,5.93-6.26C604.11,117.17,606.3,119.45,607,123.63Z" transform="translate(-35.32 -21.46)"/><path class="cls-1" d="M215,302.42c-4-.37-6.5-2.44-6.26-6.75.21-3.82,2.54-6,6.36-6,4.33,0,6.41,2.62,6.31,6.74C221.32,300.3,219,302.23,215,302.42Z" transform="translate(-35.32 -21.46)"/><path class="cls-1" d="M639.44,117.45c3.8.41,6.12,2.63,5.85,6.8-.24,3.71-2.51,5.94-6.29,6-4.17,0-6.61-2.52-6.62-6.46S635,117.53,639.44,117.45Z" transform="translate(-35.32 -21.46)"/><path class="cls-1" d="M677.21,117.44c4.56.16,6.76,2.64,6.62,6.64-.13,3.58-2.24,6.14-6.12,6.15-4,0-6.62-2.15-6.74-6.31S673.5,117.78,677.21,117.44Z" transform="translate(-35.32 -21.46)"/><path class="cls-1" d="M549,85.78c-.4,3.78-2.48,6.34-6.61,6.29s-6.23-2.8-6.19-6.81c0-3.85,2.47-6.1,6.11-6.12C546.24,79.12,548.85,81.26,549,85.78Z" transform="translate(-35.32 -21.46)"/><path class="cls-1" d="M472,86.27c-.77,3.89-3.12,6.23-7.21,5.77s-5.91-3.4-5.5-7.41,3.06-5.78,6.67-5.48C469.89,79.49,472.19,81.93,472,86.27Z" transform="translate(-35.32 -21.46)"/><path class="cls-1" d="M619.92,92.2c-4.07-.34-6.55-2.46-6.66-6.55-.13-4.25,2.58-6.49,6.51-6.51,3.6,0,6.09,2.11,6.2,6C626.09,89.23,624,91.61,619.92,92.2Z" transform="translate(-35.32 -21.46)"/><path class="cls-1" d="M221.46,353.1c0,4-1.87,6.49-5.72,6.72-4,.24-6.94-1.67-7-6-.07-4.16,2.25-6.62,6.48-6.67C219.17,347.07,221,349.51,221.46,353.1Z" transform="translate(-35.32 -21.46)"/><path class="cls-1" d="M388.33,79c3.79.68,6.41,2.35,6.42,6.33s-2.13,6.8-6.35,6.77-6.25-2.85-6.17-6.92S385,79.56,388.33,79Z" transform="translate(-35.32 -21.46)"/><path class="cls-1" d="M696.47,79c3.84.38,6.52,2.2,6.52,6.47,0,3.69-1.89,6.28-5.67,6.59-4.08.33-6.64-1.92-7-6C689.89,81.81,692.48,79.79,696.47,79Z" transform="translate(-35.32 -21.46)"/><path class="cls-1" d="M703,333.78c0,4.31-2.16,6.71-5.78,7-4,.26-6.85-1.9-7-6.17s2.53-6.6,6.56-6.59C700.54,328,702.73,330.3,703,333.78Z" transform="translate(-35.32 -21.46)"/><path class="cls-1" d="M144.49,85.51c-.31,3.82-2.11,6.6-6.37,6.56s-6.36-2.57-6.44-6.63c-.06-3.9,2.45-6,6-6.28C141.71,78.91,144.13,81.18,144.49,85.51Z" transform="translate(-35.32 -21.46)"/><path class="cls-1" d="M144.53,104.44c-.44,4.7-2.9,7-6.91,6.67-3.54-.27-6.05-2.44-5.94-6.35.11-4.08,2.38-6.54,6.51-6.57C142.51,98.17,144.1,101.1,144.53,104.44Z" transform="translate(-35.32 -21.46)"/><path class="cls-1" d="M754.38,72.84c-3.74-.3-6.44-2.12-6.41-6.38s2.6-6.36,6.63-6.43c3.87-.06,6,2.46,6.23,6C761,70.05,758.89,72.58,754.38,72.84Z" transform="translate(-35.32 -21.46)"/><path class="cls-1" d="M221.47,104.2c0,4.41-2.28,6.89-6.31,6.92-3.5,0-6.22-1.88-6.44-5.81-.23-4.1,1.84-6.75,5.93-7.1S220.93,100.42,221.47,104.2Z" transform="translate(-35.32 -21.46)"/><path class="cls-1" d="M388.46,98c4.36.71,6.5,3.09,6.27,7.25-.23,4-2.88,6-6.49,5.84-4.08-.17-6.35-2.81-6-7.05C382.58,100.25,385,98.39,388.46,98Z" transform="translate(-35.32 -21.46)"/><path class="cls-1" d="M722.47,66.36c-.63,4.49-2.93,6.63-7.08,6.39-3.83-.22-6.06-2.61-6-6.24.06-4,2.46-6.51,6.63-6.47S722,62.82,722.47,66.36Z" transform="translate(-35.32 -21.46)"/><path class="cls-1" d="M465.93,98.09c3.92.69,6.23,3,6,7.07-.24,4.29-3.18,6.2-7,5.94-3.63-.26-5.86-2.71-5.68-6.54C459.42,100.49,461.69,98.26,465.93,98.09Z" transform="translate(-35.32 -21.46)"/><path class="cls-1" d="M684,66.52c-.57,4.1-2.65,6.51-6.89,6.23-3.72-.24-6.06-2.29-6.09-6.12,0-4.16,2.4-6.47,6.46-6.58C681.71,59.93,683.47,62.74,684,66.52Z" transform="translate(-35.32 -21.46)"/><path class="cls-1" d="M542.44,98.07c4,.41,6.46,2.52,6.52,6.64.07,4.29-2.72,6.42-6.62,6.41-3.63,0-6.05-2.26-6.11-6.11C536.17,101,538.26,98.54,542.44,98.07Z" transform="translate(-35.32 -21.46)"/><path class="cls-1" d="M696.55,308.61c4.33.63,6.71,2.74,6.41,7-.26,3.71-2.34,6-6.16,6.05-4.16,0-6.44-2.46-6.55-6.51C690.14,310.8,693.08,309.2,696.55,308.61Z" transform="translate(-35.32 -21.46)"/><path class="cls-1" d="M645.41,66.34c-.31,4.14-2.47,6.45-6.63,6.44-3.82,0-6.24-2.26-6.41-5.88-.19-4,2.08-6.67,6.23-6.85S644.92,62.31,645.41,66.34Z" transform="translate(-35.32 -21.46)"/><path class="cls-1" d="M613.17,104.92c.23-3.85,2.12-6.55,6.27-6.72s6.37,2.38,6.54,6.45c.17,3.89-2.16,6.23-5.75,6.46C616.33,111.37,613.65,109.29,613.17,104.92Z" transform="translate(-35.32 -21.46)"/><path class="cls-1" d="M600.52,60c4.45.4,6.49,3.06,6.3,7-.17,3.62-2.45,6-6.33,5.85-4.06-.12-6.62-2.23-6.52-6.46S596.74,60.25,600.52,60Z" transform="translate(-35.32 -21.46)"/><path class="cls-1" d="M472,316c-.7,3.67-3,6-7.12,5.57s-5.91-3.33-5.55-7.34,3-5.75,6.62-5.49C469.86,309.07,472.17,311.46,472,316Z" transform="translate(-35.32 -21.46)"/><path class="cls-1" d="M568.4,66.65c-.55,4.11-2.92,6.21-7,6.12-3.89-.09-6-2.55-6.06-6.16,0-3.93,2.22-6.65,6.46-6.56S568,62.59,568.4,66.65Z" transform="translate(-35.32 -21.46)"/><path class="cls-1" d="M703.06,104.06c-.18,4.89-2.62,7.17-6.61,7.06-3.55-.1-6.15-2.21-6.19-6.1-.06-4,2.1-6.64,6.24-6.82S702.56,100.81,703.06,104.06Z" transform="translate(-35.32 -21.46)"/><path class="cls-2" d="M491.4,238.56c-.44,4.22-2.8,6.39-6.93,6.34-3.94-.05-6.11-2.52-6.13-6.19s2.05-6.18,6-6.3C488.51,232.29,490.85,234.44,491.4,238.56Z" transform="translate(-35.32 -21.46)"/><path class="cls-1" d="M465.38,245c-4-.32-6.16-2.41-6.13-6.24,0-4.2,2.39-6.48,6.62-6.27,3.77.18,6.06,2.32,6.06,6.17C471.93,242.9,469.28,244.75,465.38,245Z" transform="translate(-35.32 -21.46)"/><path class="cls-1" d="M452.93,238.67c-.64,4.21-2.94,6.46-7.13,6.21-3.85-.24-5.95-2.52-5.86-6.37s2.31-6,6.15-6.1C450.35,232.31,452.4,234.78,452.93,238.67Z" transform="translate(-35.32 -21.46)"/><path class="cls-1" d="M202.44,66.42c-.52,3.9-2.42,6.49-6.7,6.35-3.71-.12-6.18-2.09-6.35-5.89-.19-4.11,2.16-6.56,6.23-6.81C199.89,59.8,201.77,62.52,202.44,66.42Z" transform="translate(-35.32 -21.46)"/><path class="cls-1" d="M163.8,66.88c-.58,4.09-2.93,6.15-7.07,5.86-3.85-.27-6-2.7-5.88-6.33.11-4,2.52-6.47,6.69-6.35S163.62,62.81,163.8,66.88Z" transform="translate(-35.32 -21.46)"/><path class="cls-1" d="M235,244.93c-4.44,0-7.05-2.14-7.11-6.26,0-3.67,2.2-6.1,6.08-6.25,4.17-.16,6.71,1.94,6.78,6.21C240.78,242.51,238.51,244.53,235,244.93Z" transform="translate(-35.32 -21.46)"/><path class="cls-1" d="M214.84,244.94c-3.94-.37-6.36-2.51-6.11-6.74.23-3.83,2.68-5.8,6.45-5.78,4.29,0,6.4,2.56,6.21,6.69C221.21,243,218.84,244.84,214.84,244.94Z" transform="translate(-35.32 -21.46)"/><path class="cls-1" d="M195.8,245c-3.71-.23-6.44-2.08-6.42-6.39,0-3.85,2.41-5.95,6.19-6.14,4.32-.22,6.72,2.27,6.73,6.32C202.31,242.39,200.09,244.74,195.8,245Z" transform="translate(-35.32 -21.46)"/><path class="cls-1" d="M118.63,174.84c4.86.45,7,3,6.65,7-.3,3.54-2.59,6-6.44,5.86-4-.18-6.53-2.48-6.47-6.63C112.44,176.77,115.36,175.19,118.63,174.84Z" transform="translate(-35.32 -21.46)"/><path class="cls-1" d="M542.69,40.79c3.9.67,6.47,2.66,6.26,7-.19,4-2.88,5.9-6.46,5.87-4.11,0-6.49-2.5-6.24-6.77C536.48,43,538.9,41.14,542.69,40.79Z" transform="translate(-35.32 -21.46)"/><path class="cls-1" d="M356.46,181.39c-.77,4-2.78,6.67-7.09,6.28-3.81-.34-5.93-2.91-5.79-6.6.16-4.13,2.72-6.34,7-6.09C354.54,175.21,356,177.9,356.46,181.39Z" transform="translate(-35.32 -21.46)"/><path class="cls-1" d="M407.86,174.89c3.71.26,6.42,2.12,6.41,6.36s-2.66,6.4-6.65,6.47c-3.82.08-6.08-2.48-6.28-6C401.13,177.71,403.26,175.12,407.86,174.89Z" transform="translate(-35.32 -21.46)"/><path class="cls-1" d="M620,40.79c4.06.76,6.27,3,5.9,7.27-.36,4-3.07,5.78-6.68,5.55s-6.12-2.4-6-6.34C613.36,43,616,41.14,620,40.79Z" transform="translate(-35.32 -21.46)"/><path class="cls-1" d="M606.94,181.06c-.37,3.79-2.14,6.66-6.36,6.65-4,0-6.56-2.28-6.62-6.45-.05-3.83,2.2-5.95,5.93-6.28C604.12,174.62,606.29,176.93,606.94,181.06Z" transform="translate(-35.32 -21.46)"/><path class="cls-1" d="M645.45,180.62c-.4,4.58-2.48,7.13-6.62,7.08s-6.52-2.67-6.46-6.65c.06-3.62,2.34-5.93,6.18-6.1C642.81,174.76,644.79,177.21,645.45,180.62Z" transform="translate(-35.32 -21.46)"/><path class="cls-1" d="M703,46.9c-.08,4.37-2.34,6.62-6,6.71-4,.11-6.8-2-6.73-6.35s2.71-6.48,6.8-6.33C700.84,41.07,702.83,43.52,703,46.9Z" transform="translate(-35.32 -21.46)"/><path class="cls-1" d="M677.15,187.78c-3.76-.53-6.32-2.57-6.18-6.75s2.84-6.15,6.89-6.07,6,2.59,6,6.2C683.82,185.12,681.57,187.58,677.15,187.78Z" transform="translate(-35.32 -21.46)"/><path class="cls-1" d="M626.05,200.54c-.32,3.92-2.45,6.38-6.62,6.24-3.7-.13-6-2.33-6.17-6.12-.15-4.17,2.3-6.72,6.24-6.85S625.79,196.24,626.05,200.54Z" transform="translate(-35.32 -21.46)"/><path class="cls-1" d="M118.55,72.82c-3.73-.4-6.36-2.37-6.16-6.59s2.81-6.27,6.87-6.17c3.89.08,6,2.69,6,6.24C125.38,70.3,123.06,72.7,118.55,72.82Z" transform="translate(-35.32 -21.46)"/><path class="cls-1" d="M773.23,40.75c4.1.44,6.53,2.24,6.74,6.14.23,4.3-2.2,6.69-6.28,6.72-3.61,0-6.24-2-6.43-5.91C767.05,43.37,769.77,41.53,773.23,40.75Z" transform="translate(-35.32 -21.46)"/><path class="cls-1" d="M86.8,66.85c-.56,4.1-2.91,6.17-7,5.89-3.84-.25-6-2.68-5.9-6.31.09-4,2.5-6.48,6.66-6.37S86.61,62.78,86.8,66.85Z" transform="translate(-35.32 -21.46)"/><path class="cls-1" d="M722.41,123.53c-.29,4-2.25,6.63-6.43,6.69s-6.56-2.55-6.61-6.49c0-3.62,2.21-6,6-6.22C719.57,117.29,721.87,119.42,722.41,123.53Z" transform="translate(-35.32 -21.46)"/><path class="cls-1" d="M138,40.8c3.78.35,6.2,2.19,6.43,6.05.25,4.27-2.15,6.73-6.25,6.76-3.58,0-6.25-1.9-6.44-5.87C131.5,43.44,134.05,41.45,138,40.8Z" transform="translate(-35.32 -21.46)"/><path class="cls-1" d="M144.46,143.38c-.27,3.41-2.25,5.88-6,6-4.06.08-6.7-2.17-6.72-6.41s2.84-6.42,6.79-6.29C142.18,136.77,144.39,139.09,144.46,143.38Z" transform="translate(-35.32 -21.46)"/><path class="cls-1" d="M394.85,142.9c-.44,4.29-2.75,6.66-6.83,6.44-3.72-.21-5.81-2.68-5.82-6.45s2.32-6.17,6-6.25C392.18,136.55,394.61,138.84,394.85,142.9Z" transform="translate(-35.32 -21.46)"/><path class="cls-1" d="M549,143.28c-.45,4-2.88,6.25-6.94,6.06-3.78-.18-5.89-2.67-5.88-6.47s2.37-6.2,6.08-6.23C546.24,136.62,548.89,138.71,549,143.28Z" transform="translate(-35.32 -21.46)"/><path class="cls-1" d="M619.56,149.48c-4-.65-6.5-2.69-6.3-6.95.19-4,2.86-5.93,6.46-5.89,4.07.05,6.49,2.46,6.24,6.77C625.73,147.31,623.27,149.07,619.56,149.48Z" transform="translate(-35.32 -21.46)"/><path class="cls-1" d="M214.91,40.8c3.78.32,6.22,2.13,6.49,6,.29,4.26-2.08,6.75-6.18,6.82-3.58.07-6.28-1.83-6.5-5.81C208.47,43.5,211,41.49,214.91,40.8Z" transform="translate(-35.32 -21.46)"/><path class="cls-1" d="M516.85,66.46c.34-4,2.42-6.5,6.6-6.41s6.45,2.73,6.35,6.7c-.08,3.66-2.42,5.94-6.23,6C519.42,72.87,517.17,70.67,516.85,66.46Z" transform="translate(-35.32 -21.46)"/><path class="cls-1" d="M491.42,65.62c-.26,4.66-2.43,7-6.53,7.16-3.87.18-6.26-2.07-6.53-5.68-.29-3.9,1.7-6.77,5.95-7S490.53,62.34,491.42,65.62Z" transform="translate(-35.32 -21.46)"/><path class="cls-1" d="M298.48,46.5c-.09,4.67-2.28,7-5.93,7.12-4,.14-6.63-2-6.64-6.33,0-3.83,2.19-6.13,5.89-6.36C296,40.68,298,43.28,298.48,46.5Z" transform="translate(-35.32 -21.46)"/><path class="cls-1" d="M452.93,66.57c-.64,4.13-2.88,6.39-7,6.19-3.8-.19-6-2.38-5.95-6.19,0-4.14,2.28-6.54,6.44-6.52S452.47,62.75,452.93,66.57Z" transform="translate(-35.32 -21.46)"/><path class="cls-1" d="M317.84,47.11c-.39,4.39-2.73,6.53-6.36,6.51-4.06,0-6.46-2.46-6.24-6.69.19-3.78,2.46-6,6.21-6C315.61,41,317.59,43.58,317.84,47.11Z" transform="translate(-35.32 -21.46)"/><path class="cls-1" d="M298.51,258.1c-.45,3.82-2.43,6.18-6.31,6.11-4.24-.06-6.43-2.56-6.27-6.76.14-3.87,2.58-6.17,6.23-6.16C296.3,251.3,298.36,254,298.51,258.1Z" transform="translate(-35.32 -21.46)"/><path class="cls-1" d="M221.48,258.25c-.42,3.85-2.59,6.22-6.78,6-3.72-.23-5.95-2.45-6-6.26-.06-4.2,2.49-6.61,6.42-6.65S221.33,253.89,221.48,258.25Z" transform="translate(-35.32 -21.46)"/><path class="cls-1" d="M465.38,40.79c3.93.46,6.59,2.37,6.59,6.64,0,3.94-2.56,6-6.18,6.18-4.09.14-6.62-2.18-6.56-6.46C459.28,43.31,461.59,41.31,465.38,40.79Z" transform="translate(-35.32 -21.46)"/><path class="cls-1" d="M279.44,66.25c-.37,3.82-2.16,6.51-6.44,6.53-3.68,0-6.28-1.86-6.59-5.65-.34-4.08,1.87-6.64,6-7C276.62,59.67,278.65,62.25,279.44,66.25Z" transform="translate(-35.32 -21.46)"/><path class="cls-1" d="M620,155.5c4,.69,6.15,3.07,6,7.17-.17,3.88-2.67,6-6.28,5.94-3.93-.07-6.58-2.39-6.42-6.62S616,155.83,620,155.5Z" transform="translate(-35.32 -21.46)"/><path class="cls-1" d="M375.48,181.41c-.34,3.82-2.27,6.25-6.11,6.27-4.15,0-6.5-2.41-6.43-6.58s2.68-6.35,6.81-6.12C373.65,175.2,375.35,177.72,375.48,181.41Z" transform="translate(-35.32 -21.46)"/><path class="cls-1" d="M394.81,181c-.21,4.1-2.22,6.67-6.41,6.71-3.84,0-6-2.31-6.15-6.08-.15-4.15,2-6.65,6.27-6.63C392.37,175,394.38,177.2,394.81,181Z" transform="translate(-35.32 -21.46)"/><path class="cls-1" d="M298.47,295.39c0,4.12-1.74,6.66-5.62,6.94-4.08.29-6.79-1.7-6.91-6-.12-4.13,2.1-6.62,6.31-6.68C296.17,289.6,298,292.08,298.47,295.39Z" transform="translate(-35.32 -21.46)"/><path class="cls-1" d="M369.72,72.83c-4-.11-6.47-1.82-6.77-5.69-.31-4.09,1.68-6.82,5.9-7s6.49,2.25,6.56,6.39C375.47,70.31,373.32,72.41,369.72,72.83Z" transform="translate(-35.32 -21.46)"/><path class="cls-1" d="M388.05,117.44c3.91.13,6.41,1.89,6.66,5.75.27,4.09-1.78,6.8-6,7s-6.45-2.34-6.48-6.47C382.21,119.87,384.37,117.79,388.05,117.44Z" transform="translate(-35.32 -21.46)"/><path class="cls-1" d="M298.48,65.93c-.1,4-1.76,6.56-5.66,6.81-4.11.27-6.77-1.76-6.88-6s2.15-6.61,6.35-6.65C296.19,60,298,62.49,298.48,65.93Z" transform="translate(-35.32 -21.46)"/></svg>