<?xml version="1.0" encoding="utf-8"?>
<!-- Generator: Adobe Illustrator 22.0.1, SVG Export Plug-In . SVG Version: 6.00 Build 0)  -->
<svg version="1.1" id="Layer_1" xmlns="http://www.w3.org/2000/svg" xmlns:xlink="http://www.w3.org/1999/xlink" x="0px" y="0px"
	 viewBox="0 0 720 720" style="enable-background:new 0 0 720 720;" xml:space="preserve">
<style type="text/css">
	.st0{fill:#D9D2C5;}
</style>
<path class="st0" d="M20.2,297.6v115.1h662.1V297.6H20.2z M616.3,363.8c-0.5,0.5-12.9,11.1-30.8,16.6c-5.8,1.8-12.6,3.1-20,3.1
	c-13.9,0-29.9-4.7-45.1-19.9c-11.5-11.5-23.8-17.2-36.4-17c-20.9,0.4-36.2,16.7-36.4,16.8l-0.4,0.4c-0.5,0.5-12.9,11.1-30.8,16.6
	c-16.9,5.1-41.9,6.4-65.1-16.8c-11.5-11.5-23.8-17.2-36.4-17c-20.9,0.4-36.2,16.7-36.4,16.8l-0.4,0.4c-0.5,0.5-12.9,11.1-30.8,16.6
	c-16.9,5.1-41.9,6.4-65.1-16.8c-11.5-11.5-23.8-17.2-36.4-17c-20.9,0.4-36.2,16.7-36.4,16.8c-1.9,2-5,2.1-7.1,0.3
	c-2-1.9-2.1-5-0.3-7.1c0.7-0.8,18.4-19.6,43.5-20c15.5-0.3,30.2,6.4,43.7,19.9c15.8,15.8,34.3,20.6,55.1,14.3
	c14.8-4.5,25.5-13.2,26.9-14.4c2.2-2.3,19.4-19.4,43.3-19.8c15.5-0.3,30.2,6.4,43.7,19.9c15.8,15.8,34.3,20.6,55.1,14.3
	c14.8-4.5,25.5-13.2,26.9-14.4c2.2-2.3,19.4-19.4,43.3-19.8c15.5-0.3,30.2,6.4,43.7,19.9c15.8,15.8,34.3,20.6,55.1,14.3
	c15.9-4.8,27-14.4,27.1-14.5c2.1-1.8,5.2-1.6,7.1,0.5C618.6,358.8,618.4,361.9,616.3,363.8z"/>
</svg>
